# xmcd CD database file
#
# Track frame offsets:
#	150
#	28652
#	50067
#	76437
#	92527
#	118470
#	140611
#	167943
#	188406
#	214652
#	243102
#	263277
#
# Disc length: 3841 seconds
#
# Revision: 0
# Processed by: cddbd v1.5.1PL0 Copyright (c) Steve Scherf et al.
# Submitted via: CDex 1.51
#
DISCID=9f0eff0c
DTITLE=Nils Goran Holstein - The Messanger
DYEAR=1900
DGENRE=Jazz
TTITLE0=Misty Night
TTITLE1=I'm Getting Sentimental Over you
TTITLE2=When I Fall In Love
TTITLE3=There Is No Greater Love
TTITLE4=For My Lady
TTITLE5=Ain't Misbehavin'
TTITLE6=Mona Lisa
TTITLE7=Shifting Down
TTITLE8=Estate
TTITLE9=Blame It On My Youth
TTITLE10=Falling In Love With Love
TTITLE11=Underbart ar kort
EXTD=
EXTT0=
EXTT1=
EXTT2=
EXTT3=
EXTT4=
EXTT5=
EXTT6=
EXTT7=
EXTT8=
EXTT9=
EXTT10=
EXTT11=
PLAYORDER=
